
        <svg width="242" height="84" viewBox="0 0 242 84" fill="none" xmlns="http://www.w3.org/2000/svg">
          <path d="M240.589 56.9611C240.309 56.9609 240.038 56.8661 239.833 56.6959C239.628 56.5257 239.503 56.2927 239.483 56.0439C238.758 47.2814 234.335 39.0855 227.099 33.0964C219.864 27.1073 210.351 23.7667 200.462 23.743C199.279 23.743 198.036 23.7965 196.767 23.9019C196.555 23.9196 196.342 23.8827 196.152 23.7955C195.963 23.7083 195.806 23.5745 195.7 23.4102C191.158 16.3459 184.375 10.6266 176.198 6.96601C168.02 3.30545 158.811 1.86577 149.718 2.82663C140.626 3.7875 132.053 7.10636 125.07 12.369C118.087 17.6317 113.003 24.6051 110.452 32.419C110.385 32.6284 110.241 32.8119 110.043 32.9407C109.846 33.0696 109.605 33.1363 109.36 33.1306L109.065 33.1226C108.912 33.118 108.758 33.1132 108.604 33.1132C101.103 33.1341 93.8366 35.4329 88.0091 39.6283C82.1815 43.8236 78.1436 49.6632 76.5652 56.1783C76.5126 56.3996 76.376 56.5983 76.1783 56.7408C75.9805 56.8833 75.7336 56.9611 75.4789 56.9611H1.11007C0.815664 56.9611 0.533312 56.8572 0.325132 56.6722C0.116953 56.4872 0 56.2364 0 55.9748C0 55.7132 0.116953 55.4623 0.325132 55.2773C0.533312 55.0924 0.815664 54.9884 1.11007 54.9884H74.5905C76.4404 48.2119 80.7915 42.1812 86.9495 37.8587C93.1075 33.5362 100.718 31.171 108.565 31.1405C111.359 23.1108 116.717 15.9748 123.989 10.5994C131.26 5.22402 140.132 1.84063 149.527 0.860288C158.921 -0.120059 168.434 1.34483 176.909 5.07698C185.384 8.80913 192.458 14.6479 197.269 21.884C198.361 21.8084 199.432 21.7703 200.462 21.7703C210.912 21.7955 220.966 25.3259 228.612 31.6552C236.257 37.9845 240.931 46.6457 241.698 55.9057C241.708 56.0349 241.69 56.1646 241.643 56.2875C241.597 56.4104 241.524 56.5239 241.429 56.6217C241.333 56.7195 241.217 56.7996 241.086 56.8574C240.956 56.9152 240.814 56.9497 240.668 56.9587C240.642 56.9604 240.615 56.9611 240.589 56.9611Z" fill="#9CA3AF"></path>
          <path d="M227.381 69.6075H45.3288C45.0344 69.6075 44.7521 69.5036 44.5439 69.3187C44.3357 69.1337 44.2188 68.8828 44.2188 68.6212C44.2188 68.3596 44.3357 68.1088 44.5439 67.9238C44.7521 67.7388 45.0344 67.6349 45.3288 67.6349H227.381C227.675 67.6349 227.958 67.7388 228.166 67.9238C228.374 68.1088 228.491 68.3596 228.491 68.6212C228.491 68.8828 228.374 69.1337 228.166 69.3187C227.958 69.5036 227.675 69.6075 227.381 69.6075Z" fill="#9CA3AF"></path>
          <path d="M89.7325 83.9097H28.6784C28.384 83.9097 28.1017 83.8058 27.8935 83.6208C27.6853 83.4359 27.5684 83.185 27.5684 82.9234C27.5684 82.6618 27.6853 82.4109 27.8935 82.2259C28.1017 82.041 28.384 81.937 28.6784 81.937H89.7325C90.0269 81.937 90.3093 82.041 90.5175 82.2259C90.7256 82.4109 90.8426 82.6618 90.8426 82.9234C90.8426 83.185 90.7256 83.4359 90.5175 83.6208C90.3093 83.8058 90.0269 83.9097 89.7325 83.9097Z" fill="#9CA3AF"></path>
          <path opacity="0.3" d="M146.769 33.6021H151.36C151.36 33.6021 151.36 30.1772 155.365 30.1158C157.445 30.0844 158.521 31.2948 158.962 32.2228C159.471 33.2997 159.317 34.5274 158.635 35.5262C157.857 36.6665 156.18 37.8128 153.085 37.3288L153.056 46.4159H157.595V41.0288C157.595 41.0288 163.962 39.5667 163.962 33.3331C163.962 27.3685 158.534 26.08 155.616 25.9972C153.992 25.9511 153.404 25.889 151.396 26.1421C148.838 26.4652 146.714 29.105 146.769 33.6021Z" fill="#D1D5DB"></path>
          <path opacity="0.3" d="M157.652 48.3104H153.045V52.1333H157.652V48.3104Z" fill="#D1D5DB"></path>
          <path d="M144.868 33.602H149.458C149.458 33.602 149.458 30.177 153.464 30.1156C155.544 30.0842 156.62 31.2946 157.061 32.2227C157.569 33.2995 157.415 34.5273 156.734 35.5261C155.955 36.6664 154.249 37.7032 151.156 37.2192V46.4157H155.695V41.0286C155.695 41.0286 162.06 39.5665 162.06 33.3329C162.06 27.3683 156.041 25.983 153.464 25.983C151.494 25.9817 144.781 26.4063 144.868 33.602Z" fill="#9CA3AF"></path>
          <path d="M155.749 48.3104H151.143V52.1333H155.749V48.3104Z" fill="#9CA3AF"></path>
        </svg>